<svg width="90" height="91" fill="none" xmlns="http://www.w3.org/2000/svg"><circle cx="45" cy="45.894" r="43" fill="url(#paint0_linear)"/><path fill-rule="evenodd" clip-rule="evenodd" d="M35.037 23.95c1.726 0 1.624-1.295.33-3.287-.257-.396-1.136-.405-2.061-.415-.87-.01-1.782-.019-2.254-.351-.78-.55.839-2.705 1.806-2.766.389-.025.8-.044 1.216-.064 3.018-.14 6.36-.297 3.874-2.728-1.359-1.33-4.526.864-6.624 2.397-.423.31-.77.752-1.111 1.187-.569.725-1.122 1.43-1.986 1.472-.764.038-1.625-1.914-2.211-3.242-.268-.607-.478-1.084-.596-1.182-.225-.187-1.243.191-1.106.931.034.183.313.587.59.987.369.533.734 1.062.516 1.062-.275 0-.393.194-.517.398-.077.127-.156.257-.276.346-.106.078-.232-.29-.381-.724-.132-.384-.282-.82-.451-1.046-1.248-1.666-1.998-1.365-2.685-1.088-.1.04-.2.08-.3.114-1.088.362-1.534.872-2.163 1.59v.001c-.238.272-.502.574-.837.909-1 1-3 1.586-4.5 1.5-.55-.032.127-2.192 1-3.5.197-.296.545-.468.993-.69.385-.19.844-.416 1.344-.79l.618-.465c1.819-1.377 4.247-3.214 7.049-4.056.616-.184 1.688-.426 2.839-.686 2.25-.507 4.795-1.082 4.795-1.425 0-.39-1.076-.265-2.283-.126-.403.046-.82.094-1.217.126-1.417.112-1.687-.118-1-1 .61-.783 2.916-1.083 4.692-1.315.493-.064.944-.123 1.308-.185 1.943-.333 4.89-.699 6.5-.5 2.489.307 9.285-.32 9.5-2 .08-.624 11.276.995 17.862 5.112 8 5 11 8.5 14.5 15 1.368 2.54.375 3.717-.866 5.185-.559.662-1.168 1.383-1.634 2.315-.545 1.09.24 2.675.974 4.154.88 1.772 1.682 3.39.026 3.823-1.327.347-2.791-1.483-4.412-3.506-.822-1.027-1.683-2.103-2.588-2.971-.46-.441-.792-.957-1.102-1.437-.618-.957-1.144-1.771-2.398-1.563-2.507.415-4.5 4-4.5 8 0 .675-1.156 2.916-2 2-.706-.767-1.252-2.153-1.867-3.712-1.208-3.062-2.678-6.79-6.133-7.788-2.474-.716-3.802-.854-5.001-.98-.922-.096-1.767-.184-2.999-.52-.345-.095-.746-.263-1.14-.428-.95-.398-1.86-.78-1.86-.072 0 .841.5 2 1.5 2.5.673.336 1.67.24 2.606.149 1.06-.103 2.044-.198 2.394.35 2.048 3.212-6.329 7.172-10 7-2.115-.098-3.53-3.563-4.686-6.392-.386-.945-.742-1.819-1.087-2.472-.303-.576-1.404-.145-1.227.365.17.487.336 1.01.51 1.556.996 3.13 2.223 6.986 5.49 8.943.43.258 1.32.231 2.263.204 1.629-.049 3.412-.101 3.237 1.296-.225 1.799-2.647 4.592-6 7.5-2.156 1.87-1.52 5.366-1 8 .378 1.913-.601 2.848-1.639 3.839-.758.724-1.547 1.477-1.86 2.661-1.121 4.224-3.065 9.254-7.271 9.254-3.02 0-6.666-6.927-7.73-10.253-.38-1.187-.528-2.667-.684-4.221-.216-2.146-.446-4.431-1.316-6.28-.43-.912-.57-1.903-.705-2.86-.204-1.434-.396-2.792-1.533-3.692-.795-.628-1.738-.623-2.912-.617-1.299.008-2.879.016-4.85-.83-2.456-1.056-2.888-5.119-1.796-10 1.352-6.044 5.817-10.5 11.796-12.054 2.562-.666 3.565.149 4.642 1.024.605.491 1.234 1.002 2.175 1.279.924.273 1.71.58 2.443.866.94.368 1.793.701 2.74.885 1.284.248 2.144.18 3.18.098a24.153 24.153 0 012.047-.098zm8.485-8.927l-.013-.084c-.05-.329-.114-.759.013-1.014.137-.278.99.163 1.33.668l.137.2c.504.736 1.585 2.31 1.585 3.246 0 .744-.91 1.227-1.485.693-.55-.512-1.4-2.567-1.567-3.71zm39.926 29.816c-.288-.864-.078-1.396.151-1.98.17-.428.349-.884.349-1.52 0-1.5.667-1 1 0 .333 1 .5 2 .5 3 0 .5-1.5 2-2 .5zm0 14c-1.5 1.5-3 4-3 6.5 0 1 .2 3 1 3 1 0 5-8.5 5-11 0-1.5-1.542.042-3 1.5zM43.513 63.47c-1.077 2.224-2.363 1.934-3.278.995-.912-.936 2.962-8.903 3.278-8.627.764.67.861 5.852 0 7.632z" fill="url(#paint1_linear)"/><path opacity=".5" fill-rule="evenodd" clip-rule="evenodd" d="M35.055 14.399a208.65 208.65 0 011.462-8.98c1.288-.13 2.556-.188 3.431-.08 2.489.307 9.285-.32 9.5-2 .08-.624 11.276.995 17.862 5.112 8 5 11 8.5 14.5 15 1.368 2.54.375 3.717-.866 5.185-.559.662-1.168 1.383-1.634 2.315-.545 1.09.24 2.675.974 4.154.88 1.772 1.682 3.39.026 3.823-1.327.347-2.791-1.483-4.412-3.506-.822-1.027-1.683-2.103-2.588-2.971-.46-.441-.792-.957-1.102-1.437-.618-.957-1.144-1.771-2.398-1.563-2.508.415-4.5 4-4.5 8 0 .675-1.156 2.916-2 2-.706-.767-1.252-2.153-1.867-3.712-1.208-3.062-2.678-6.79-6.133-7.788-2.474-.716-3.802-.854-5.001-.98-.922-.096-1.767-.184-2.999-.52-.345-.095-.746-.263-1.14-.428-.95-.398-1.86-.78-1.86-.072 0 .841.5 2 1.5 2.5.673.336 1.67.24 2.606.149 1.06-.103 2.044-.198 2.394.35 2.048 3.212-6.329 7.172-10 7-2.115-.098-3.53-3.563-4.686-6.392-.386-.945-.742-1.819-1.087-2.472-.303-.576-1.404-.145-1.227.365.17.487.336 1.01.51 1.556.996 3.13 2.223 6.986 5.49 8.943.43.258 1.32.231 2.263.204 1.629-.049 3.412-.101 3.237 1.296-.225 1.799-2.647 4.592-6 7.5-2.156 1.87-1.52 5.366-1 8 .378 1.913-.601 2.848-1.639 3.839-.758.724-1.547 1.477-1.86 2.661a34.618 34.618 0 01-.842 2.75A212.554 212.554 0 0133 43.894c0-6.716.315-13.358.932-19.912.336-.019.7-.031 1.105-.031 1.726 0 1.624-1.296.33-3.288-.16-.244-.556-.341-1.054-.382.121-1.084.25-2.165.388-3.244 2.824-.143 5.56-.434 3.247-2.698-.653-.64-1.724-.464-2.893.06zm8.454.54l.013.084c.167 1.142 1.017 3.197 1.567 3.709.574.534 1.485.052 1.485-.693 0-.935-1.08-2.51-1.585-3.245a29.254 29.254 0 01-.138-.201c-.34-.505-1.192-.946-1.33-.668-.126.255-.061.685-.012 1.014zm40.09 27.92c-.23.584-.44 1.116-.151 1.98.5 1.5 2 0 2-.5 0-1-.167-2-.5-3-.333-1-1-1.5-1 0 0 .636-.18 1.092-.349 1.52zm-3.151 22.48c0-2.5 1.5-5 3-6.5 1.458-1.458 3-3 3-1.5 0 2.5-4 11-5 11-.8 0-1-2-1-3zm-40.213-.873c.915.939 2.2 1.23 3.278-.995.861-1.78.764-6.963 0-7.632-.316-.276-4.19 7.69-3.278 8.627z" fill="#94E28D"/><defs><linearGradient id="paint0_linear" x1="64.5" y1="45.894" x2="23" y2="45.894" gradientUnits="userSpaceOnUse"><stop stop-color="#66B1FF"/><stop offset="1" stop-color="#2188FF"/></linearGradient><linearGradient id="paint1_linear" x1="20.694" y1="45.032" x2="68.775" y2="45.172" gradientUnits="userSpaceOnUse"><stop stop-color="#31B499"/><stop offset="1" stop-color="#55E3AA"/></linearGradient></defs></svg>